<?xml version="1.0" standalone="no"?><!DOCTYPE svg PUBLIC "-//W3C//DTD SVG 1.1//EN" "http://www.w3.org/Graphics/SVG/1.1/DTD/svg11.dtd"><svg class="icon" width="200px" height="200.00px" viewBox="0 0 1024 1024" version="1.1" xmlns="http://www.w3.org/2000/svg"><path d="M618.666667 128A64 64 0 0 1 682.666667 192v213.333333a64 64 0 0 1-128 0v-213.333333A64 64 0 0 1 618.666667 128z m-426.666667 426.666667H256v64A64 64 0 1 1 192 554.666667z m362.666667 213.333333h64a64 64 0 1 1-64 64V768z m64-213.333333h213.333333a64 64 0 0 1 0 128h-213.333333a64 64 0 0 1 0-128z m213.333333-213.333334a64 64 0 0 1 0 128H768V405.333333A64 64 0 0 1 832 341.333333z m-640 0h213.333333a64 64 0 0 1 0 128h-213.333333a64 64 0 0 1 0-128z m213.333333-213.333333A64 64 0 0 1 469.333333 192V256H405.333333a64 64 0 0 1 0-128z m0 426.666667a64 64 0 0 1 64 64v213.333333a64 64 0 0 1-128 0v-213.333333A64 64 0 0 1 405.333333 554.666667z" /></svg>